<mxfile host="app.diagrams.net" modified="2023-03-30T10:53:23.368Z" agent="Mozilla/5.0 (Windows NT 10.0; Win64; x64; rv:109.0) Gecko/20100101 Firefox/111.0" etag="fhDK_gSBWS3uhHNTcWaf" version="21.1.0" type="device">
  <diagram id="C5RBs43oDa-KdzZeNtuy" name="Page-1">
    <mxGraphModel dx="656" dy="336" grid="1" gridSize="10" guides="1" tooltips="1" connect="1" arrows="1" fold="1" page="1" pageScale="1" pageWidth="827" pageHeight="1169" math="0" shadow="0">
      <root>
        <mxCell id="WIyWlLk6GJQsqaUBKTNV-0" />
        <mxCell id="WIyWlLk6GJQsqaUBKTNV-1" parent="WIyWlLk6GJQsqaUBKTNV-0" />
        <mxCell id="He5YrsMnvz-Ozanq4hD3-0" value="Cell" style="swimlane;fontStyle=1;align=center;verticalAlign=top;childLayout=stackLayout;horizontal=1;startSize=26;horizontalStack=0;resizeParent=1;resizeParentMax=0;resizeLast=0;collapsible=1;marginBottom=0;whiteSpace=wrap;html=1;" vertex="1" parent="WIyWlLk6GJQsqaUBKTNV-1">
          <mxGeometry x="330" y="240" width="350" height="180" as="geometry" />
        </mxCell>
        <mxCell id="He5YrsMnvz-Ozanq4hD3-1" value="&lt;div&gt;+ int columns - Hvor mange celler der er på x-aksen &lt;br&gt;&lt;/div&gt;&lt;div&gt;+ int rows - Hvor mange celler der er på y-aksen&lt;br&gt;&lt;/div&gt;&lt;div&gt;+ int[][] board - 2d array som holder cellerne&lt;br&gt;&lt;/div&gt;&lt;div&gt;+ int size - størrelsen på cellerne&lt;br&gt;&lt;/div&gt;" style="text;strokeColor=none;fillColor=none;align=left;verticalAlign=top;spacingLeft=4;spacingRight=4;overflow=hidden;rotatable=0;points=[[0,0.5],[1,0.5]];portConstraint=eastwest;whiteSpace=wrap;html=1;" vertex="1" parent="He5YrsMnvz-Ozanq4hD3-0">
          <mxGeometry y="26" width="350" height="74" as="geometry" />
        </mxCell>
        <mxCell id="He5YrsMnvz-Ozanq4hD3-2" value="" style="line;strokeWidth=1;fillColor=none;align=left;verticalAlign=middle;spacingTop=-1;spacingLeft=3;spacingRight=3;rotatable=0;labelPosition=right;points=[];portConstraint=eastwest;strokeColor=inherit;" vertex="1" parent="He5YrsMnvz-Ozanq4hD3-0">
          <mxGeometry y="100" width="350" height="8" as="geometry" />
        </mxCell>
        <mxCell id="He5YrsMnvz-Ozanq4hD3-3" value="&lt;div&gt;+ Cell() - Den bestemmer antallet af celler og bestemmer hvad cellerne er, jord, græs og vand, i starten af programmet.&lt;br&gt;&lt;/div&gt;&lt;div&gt;+ void generate() - Tjekker naboer og kører cellernes regler.&lt;br&gt;&lt;/div&gt;&lt;div&gt;+ void tegn() - Tegner cellerne og giver dem deres farver&lt;br&gt;&lt;/div&gt;" style="text;strokeColor=none;fillColor=none;align=left;verticalAlign=top;spacingLeft=4;spacingRight=4;overflow=hidden;rotatable=0;points=[[0,0.5],[1,0.5]];portConstraint=eastwest;whiteSpace=wrap;html=1;" vertex="1" parent="He5YrsMnvz-Ozanq4hD3-0">
          <mxGeometry y="108" width="350" height="72" as="geometry" />
        </mxCell>
      </root>
    </mxGraphModel>
  </diagram>
</mxfile>
